<?xml version="1.0" encoding="UTF-8"?>
<svg xmlns="http://www.w3.org/2000/svg" viewBox="0 0 25 21">
  <defs>
    <style>
      .cls-1 {
        fill-rule: evenodd;
      }

      .cls-1, .cls-2 {
        stroke: rgba(0, 0, 0, 0);
      }
    </style>
  </defs>
  <g id="Capa_1" data-name="Capa 1" focusable="false">
    <g>
      <path class="cls-2" d="M6.19,3.21c-.55,0-1,.45-1,1s.45,1,1,1h3.62c.55,0,1-.45,1-1s-.45-1-1-1h-3.62Z"/>
      <path class="cls-1" d="M3.5.5c-.55,0-1,.45-1,1v6h-1c-.55,0-1,.45-1,1,0,.04,0,.07,0,.11l1.22,11c.06.51.48.89.99.89h19.56c.51,0,.94-.38.99-.89l1.22-11c.06-.55-.33-1.04-.88-1.1-.04,0-.07,0-.11,0h-1v-3.29c0-.55-.45-1-1-1h-7.77l-.87-2.1c-.15-.37-.52-.62-.92-.62H3.5ZM20.5,7.5v-2.29h-7.44c-.4,0-.77-.24-.92-.62l-.87-2.1h-6.77v5h16ZM2.62,9.5l1,9h17.77l1-9H2.62Z"/>
    </g>
  </g>
</svg>