<?xml version="1.0" encoding="UTF-8"?>
<svg xmlns="http://www.w3.org/2000/svg" viewBox="0 0 22.91 24.22">
  <defs>
    <style>
      .cls-1 {
        fill-rule: evenodd;
        stroke: rgba(0, 0, 0, 0);
      }
    </style>
  </defs>
  <g id="Capa_1" data-name="Capa 1" focusable="false">
    <path class="cls-1" d="M17.28,13.5c.56-.77,1.09-1.51,1.52-2.17,1.02-1.54,2.17-3.56,2.89-5.37.35-.9.63-1.81.69-2.61.07-.76-.03-1.72-.78-2.34-.76-.62-1.76-.56-2.55-.39-.84.19-1.77.58-2.68,1.05-1.82.94-3.75,2.3-5.03,3.33-.48.39-1.04.84-1.62,1.33-.23-.13-.46-.24-.71-.33-1.55-.56-3.35-.24-4.62.97l-3.7,3.52c.5.52,1.09.9,1.72,1.12.4.14.81.23,1.23.26l1.06,1.06c-.45.25-.96.61-1.42,1.12-.57.6-.92,1.41-1.14,2.18-.23.8-.36,1.66-.43,2.43-.12,1.3-.09,2.59-.02,3.89,1.24-.06,2.48-.15,3.7-.39.73-.14,1.53-.34,2.28-.63.72-.28,1.47-.67,2.02-1.23.47-.43.8-.9,1.04-1.33l.88.88c-.02.71.12,1.42.43,2.06.26.54.62,1.03,1.07,1.43l.19.17,3.78-4.22c1.25-1.39,1.47-3.34.72-4.93-.15-.31-.33-.6-.54-.87ZM19.5,2.57c.6-.13.81-.04.84-.02.01.02.1.16.06.62-.05.53-.24,1.23-.56,2.06-.18.46-.39.93-.63,1.42l-2.94-2.62c.34-.2.69-.4,1.04-.58.84-.44,1.6-.74,2.19-.88ZM14.51,5.15c-.71.49-1.37.98-1.91,1.41-.84.67-1.91,1.57-2.96,2.47l4.86,4.86c.96-1.27,1.93-2.6,2.64-3.67.38-.58.75-1.16,1.09-1.76l-3.73-3.31h0ZM13.27,15.48l.07-.07c-.48.62-.97,1.25-1.45,1.87l-5.45-5.45c.56-.5,1.13-.99,1.69-1.48l5.14,5.14ZM9.25,17.47c-.44,1.06-1.23,1.78-2.29,2.19-.6.23-1.28.41-1.94.53-.51.1-.99.17-1.39.22,0-.44.03-.99.08-1.56.07-.7.18-1.43.36-2.06.33-1.15,1.04-1.89,2.14-2.36l3.04,3.04ZM5.78,8.42l-1.52,1.45c.53-.07,1.02-.3,1.41-.67l1.52-1.45c-.53.07-1.02.3-1.41.67ZM15.61,17.96l-1.97,2.2c-.05-.67.18-1.33.63-1.83l1.97-2.2c.05.67-.18,1.33-.63,1.83Z"/>
  </g>
</svg>