<?xml version="1.0" encoding="UTF-8"?>
<svg xmlns="http://www.w3.org/2000/svg" viewBox="0 0 25.03 19">
  <defs>
    <style>
      .cls-1 {
        fill-rule: evenodd;
        stroke: rgba(0, 0, 0, 0);
      }
    </style>
  </defs>
  <g id="Capa_1" data-name="Capa 1" focusable="false">
    <path class="cls-1" d="M4.55,5.23C6.07,2.41,9.05.5,12.47.5c1.73,0,3.35.49,4.72,1.34.9-.23,1.76-.34,2.5-.29.88.05,1.8.35,2.35,1.14.54.78.52,1.72.28,2.56-.15.54-.41,1.1-.75,1.67.72.37,1.35.78,1.83,1.23.66.62,1.2,1.44,1.11,2.42-.08.95-.71,1.65-1.43,2.14-.72.48-1.66.85-2.72,1.12-1.53,2.8-4.49,4.69-7.9,4.69-1.72,0-3.33-.48-4.7-1.32-.06.02-.12.04-.18.05-1.08.31-2.1.47-2.98.41-.87-.06-1.76-.36-2.31-1.13-.57-.81-.51-1.79-.25-2.66.2-.63.53-1.3.97-1.98-.58-.32-1.08-.68-1.48-1.07-.63-.61-1.12-1.41-1.04-2.35.08-.96.73-1.67,1.47-2.16.68-.45,1.57-.81,2.57-1.07h0ZM5.47,9.5c0-3.87,3.13-7,7-7,3.01,0,5.58,1.9,6.57,4.57-1.18,1.51-3.01,3.23-5.26,4.81-.23.16-.45.31-.68.46-.27-.02-.55-.04-.82-.06-2.6-.23-4.92-.75-6.67-1.42-.09-.45-.13-.91-.13-1.36ZM3.48,9.8c-.02-.72.04-1.45.19-2.16-.22.1-.42.21-.58.32-.49.33-.57.57-.58.67,0,.1.03.34.44.74.15.14.33.29.54.43ZM5.84,15.58c-.42.07-.79.08-1.09.06-.57-.04-.75-.21-.81-.29-.06-.08-.16-.33.03-.92.09-.28.23-.61.43-.96.38.77.86,1.48,1.44,2.11ZM8.09,14.96c-.59-.47-1.09-1.04-1.5-1.67,1.1.31,2.3.57,3.58.76-.72.36-1.42.67-2.08.91ZM10.36,16.18c.68.22,1.4.33,2.11.32,2.02,0,3.84-.86,5.12-2.23-1.22.12-2.56.16-3.95.1-1.11.71-2.22,1.31-3.28,1.8h0ZM21.27,11.41c.28-.12.51-.25.7-.38.47-.32.55-.55.56-.65,0-.1-.03-.36-.48-.78-.16-.15-.35-.3-.58-.45.03.76-.04,1.52-.2,2.27ZM19.47,9.63c-.01.83-.18,1.66-.48,2.43-.75.14-1.6.24-2.51.29,1.13-.89,2.14-1.82,2.99-2.72ZM20.28,5.03c.05-.11.08-.23.12-.34.16-.55.06-.78,0-.86-.06-.08-.25-.25-.83-.29-.12,0-.24,0-.36,0,.41.46.77.96,1.07,1.49h0Z"/>
  </g>
</svg>