<?xml version="1.0" encoding="UTF-8"?>
<svg xmlns="http://www.w3.org/2000/svg" viewBox="0 0 25 13">
  <defs>
    <style>
      .cls-1 {
        stroke: rgba(0, 0, 0, 0);
      }
    </style>
  </defs>
  <g id="Capa_1" data-name="Capa 1" focusable="false">
    <path class="cls-1" d="M5.89,2.5h3.61c.55,0,1-.45,1-1s-.45-1-1-1h-3.61C2.91.5.5,2.91.5,5.89v1.17c0,2.98,2.41,5.39,5.39,5.39h3.61c.55,0,1-.45,1-1s-.45-1-1-1h-3.61c-1.87,0-3.39-1.52-3.39-3.39v-1.17c0-1.87,1.52-3.39,3.39-3.39ZM15.5.5c-.55,0-1,.45-1,1s.45,1,1,1h3.61c1.87,0,3.39,1.52,3.39,3.39v1.2c0,1.87-1.51,3.38-3.37,3.39l-3.63.02c-.55,0-1,.45-.99,1.01s.45,1,1.01.99l3.63-.02c2.97-.02,5.36-2.42,5.36-5.39v-1.2c0-2.98-2.41-5.39-5.39-5.39h-3.61Z"/>
    <path class="cls-1" d="M16.5,5.5c.55,0,1,.45,1,1s-.45,1-1,1h-8c-.55,0-1-.45-1-1s.45-1,1-1h8Z"/>
  </g>
</svg>