<?xml version="1.0" encoding="UTF-8"?>
<svg xmlns="http://www.w3.org/2000/svg" viewBox="0 0 21 21">
  <defs>
    <style>
      .cls-1 {
        fill-rule: evenodd;
        stroke: rgba(0, 0, 0, 0);
      }
    </style>
  </defs>
  <g id="Capa_1" data-name="Capa 1" focusable="false">
    <path class="cls-1" d="M.5,1.5C.5.95.95.5,1.5.5h8.44c.4,0,.77.24.92.62l.87,2.1h7.77c.55,0,1,.45,1,1v15.29c0,.55-.45,1-1,1H1.5c-.55,0-1-.45-1-1V1.5ZM2.5,2.5v16h16V5.21h-7.44c-.4,0-.77-.24-.92-.62l-.87-2.1H2.5ZM3.19,4.21c0-.55.45-1,1-1h3.62c.55,0,1,.45,1,1s-.45,1-1,1h-3.62c-.55,0-1-.45-1-1Z"/>
  </g>
</svg>