<?xml version="1.0" encoding="UTF-8"?>
<svg xmlns="http://www.w3.org/2000/svg" viewBox="0 0 21 25">
  <defs>
    <style>
      .cls-1 {
        fill-rule: evenodd;
      }

      .cls-1, .cls-2 {
        stroke: rgba(0, 0, 0, 0);
      }
    </style>
  </defs>
  <g id="Capa_1" data-name="Capa 1" focusable="false">
    <path class="cls-1" d="M4.5,8.5c0-.55.45-1,1-1h3c.55,0,1,.45,1,1v3c0,.55-.45,1-1,1h-3c-.55,0-1-.45-1-1v-3ZM6.5,9.5v1h1v-1h-1ZM5.5,14.5c-.55,0-1,.45-1,1v3c0,.55.45,1,1,1h3c.55,0,1-.45,1-1v-3c0-.55-.45-1-1-1h-3ZM6.5,17.5v-1h1v1h-1Z"/>
    <path class="cls-2" d="M10.5,11.5c0-.55.45-1,1-1h5c.55,0,1,.45,1,1s-.45,1-1,1h-5c-.55,0-1-.45-1-1ZM11.5,14.5c-.55,0-1,.45-1,1s.45,1,1,1h5c.55,0,1-.45,1-1s-.45-1-1-1h-5ZM10.5,18.5c0-.55.45-1,1-1h3c.55,0,1,.45,1,1s-.45,1-1,1h-3c-.55,0-1-.45-1-1Z"/>
    <path class="cls-1" d="M.5,1.5C.5.95.95.5,1.5.5h13c.27,0,.52.11.71.29l5,5c.19.19.29.44.29.71v17c0,.55-.45,1-1,1H1.5c-.55,0-1-.45-1-1V1.5ZM18.09,6.5l-3.59-3.59v3.59h3.59ZM12.5,2.5v5c0,.55.45,1,1,1h5v14H2.5V2.5h10Z"/>
  </g>
</svg>