<?xml version="1.0" encoding="UTF-8"?>
<svg xmlns="http://www.w3.org/2000/svg" viewBox="0 0 21 25">
  <defs>
    <style>
      .cls-1 {
        fill-rule: evenodd;
      }

      .cls-1, .cls-2 {
        stroke: rgba(0, 0, 0, 0);
      }
    </style>
  </defs>
  <g id="Capa_1" data-name="Capa 1" focusable="false">
    <path class="cls-2" d="M5.5,11.5c-.55,0-1,.45-1,1s.45,1,1,1h9c.55,0,1-.45,1-1s-.45-1-1-1H5.5ZM4.5,15.5c0-.55.45-1,1-1h10c.55,0,1,.45,1,1s-.45,1-1,1H5.5c-.55,0-1-.45-1-1ZM5.5,17.5c-.55,0-1,.45-1,1s.45,1,1,1h9c.55,0,1-.45,1-1s-.45-1-1-1H5.5Z"/>
    <path class="cls-1" d="M.5,1.5C.5.95.95.5,1.5.5h13c.27,0,.52.11.71.29l5,5c.19.19.29.44.29.71v17c0,.55-.45,1-1,1H1.5c-.55,0-1-.45-1-1V1.5ZM2.5,2.5h10v5c0,.55.45,1,1,1h5v14H2.5V2.5ZM14.5,6.5h3.59l-3.59-3.59v3.59Z"/>
  </g>
</svg>